<?xml version="1.0" standalone="no"?><!DOCTYPE svg PUBLIC "-//W3C//DTD SVG 1.1//EN" "http://www.w3.org/Graphics/SVG/1.1/DTD/svg11.dtd"><svg t="1638936362137" class="icon" viewBox="0 0 1024 1024" version="1.1" xmlns="http://www.w3.org/2000/svg" p-id="1667" xmlns:xlink="http://www.w3.org/1999/xlink" width="400" height="400"><defs><style type="text/css"></style></defs><path d="M822.816 591.376l-12.816 0L720.704 397.28c-2.896-6.336-9.264-10.416-16.256-10.416L314.608 386.864c-7.008 0-13.328 4.08-16.288 10.416l-89.28 194.096-12.864 0c-22.304 0-40.544 18.256-40.544 40.576l0 166.896c0 22.304 18.24 40.56 40.544 40.56l1.664 0 0 62.416c0 29.888 24.464 54.336 54.336 54.336l0.4 0c29.888 0 54.336-24.448 54.336-54.336l0-62.416 405.136 0 0 62.416c0 29.888 24.432 54.336 54.368 54.336l0.4 0c29.84 0 54.336-24.448 54.336-54.336l0-62.416 1.632 0c22.336 0 40.592-18.272 40.592-40.56L863.376 631.952C863.408 609.632 845.136 591.376 822.816 591.376M252.864 765.744c-28 0-50.704-22.688-50.704-50.688s22.688-50.704 50.704-50.704c28 0 50.688 22.704 50.688 50.704S280.848 765.744 252.864 765.744M248.432 591.376l77.6-168.72 366.976 0 77.616 168.72L248.432 591.376zM766.176 765.744c-27.984 0-50.672-22.688-50.672-50.688s22.688-50.704 50.672-50.704c28.016 0 50.72 22.704 50.72 50.704S794.192 765.744 766.176 765.744M802.432 240.304c-20.048 0-36.496-16.416-36.496-36.496l0-41.472c0-20.064 16.448-36.512 36.496-36.512l63.632 0c-19.936-34.624-57.28-58-100.128-58-48.816 0-90.48 30.32-107.424 73.12L360.544 140.944c-16.96-42.8-58.624-73.12-107.456-73.12-42.832 0-80.16 23.376-100.144 58l63.648 0c20.096 0 36.512 16.432 36.512 36.512l0 41.472c0 20.064-16.4 36.496-36.512 36.496L152.544 240.304c19.84 35.04 57.392 58.72 100.544 58.72 48.832 0 90.496-30.336 107.456-73.12l297.968 0c16.944 42.784 58.608 73.12 107.424 73.12 43.136 0 80.736-23.68 100.576-58.72L802.432 240.304z" p-id="1668" fill="#1296db"></path></svg>