<?xml version="1.0" standalone="no"?><!DOCTYPE svg PUBLIC "-//W3C//DTD SVG 1.1//EN" "http://www.w3.org/Graphics/SVG/1.1/DTD/svg11.dtd"><svg t="1638936252542" class="icon" viewBox="0 0 1177 1024" version="1.1" xmlns="http://www.w3.org/2000/svg" p-id="1111" xmlns:xlink="http://www.w3.org/1999/xlink" width="459.765625" height="400"><defs><style type="text/css"></style></defs><path d="M600.746667 1012.053333c-157.013333 0-339.626667-39.253333-532.48-153.6-6.826667-5.12-13.653333-11.946667-15.36-20.48-10.24-37.546667-6.826667-66.56 11.946666-90.453333C85.333333 723.626667 119.466667 709.973333 168.96 709.973333c6.826667 0 13.653333 1.706667 18.773333 5.12l1.706667 1.706667 92.16-199.68c-11.946667-6.826667-22.186667-8.533333-34.133333-6.826667-22.186667 1.706667-47.786667 18.773333-73.386667 51.2-10.24 11.946667-27.306667 15.36-40.96 10.24l-112.64-51.2c-15.36-6.826667-22.186667-23.893333-18.773333-39.253333 30.72-128 114.346667-187.733333 242.346666-170.666667 146.773333-30.72 274.773333-34.133333 380.586667-8.533333 3.413333 0 5.12 1.706667 8.533333 3.413333C737.28 97.28 829.44 0 923.306667 0c92.16 0 172.373333 51.2 238.933333 150.186667 8.533333 11.946667 6.826667 29.013333-1.706667 40.96-23.893333 29.013333-27.306667 87.04-6.826666 170.666666 3.413333 11.946667-1.706667 25.6-10.24 34.133334L1090.56 443.733333c-6.826667 6.826667-17.066667 10.24-27.306667 8.533334-10.24-1.706667-18.773333-6.826667-23.893333-15.36-44.373333-68.266667-68.266667-88.746667-76.8-95.573334-20.48 18.773333-47.786667 44.373333-83.626667 75.093334 76.8 157.013333 104.106667 244.053333 110.933334 296.96 30.72-8.533333 56.32-8.533333 78.506666 1.706666 17.066667 8.533333 37.546667 25.6 46.08 64.853334 8.533333 42.666667-34.133333 83.626667-71.68 109.226666-81.92 58.026667-240.64 122.88-442.026666 122.88zM117.76 808.96c382.293333 220.16 703.146667 114.346667 791.893333 76.8 92.16-39.253333 131.413333-80.213333 136.533334-93.866667-1.706667-5.12-3.413333-11.946667-8.533334-15.36-3.413333-1.706667-20.48-6.826667-69.973333 18.773334-13.653333 6.826667-29.013333 5.12-39.253333-5.12-10.24-10.24-13.653333-25.6-8.533334-37.546667 5.12-11.946667 11.946667-73.386667-116.053333-329.386667-6.826667-13.653333-3.413333-30.72 8.533333-40.96 47.786667-40.96 83.626667-71.68 105.813334-93.866666 11.946667-11.946667 29.013333-17.066667 46.08-15.36 32.426667 3.413333 64.853333 32.426667 109.226666 95.573333l8.533334-8.533333c-17.066667-81.92-13.653333-143.36 10.24-187.733334-49.493333-68.266667-105.813333-100.693333-168.96-100.693333-37.546667 0-117.76 37.546667-244.053334 291.84v1.706667l-3.413333 5.12c-8.533333 15.36-29.013333 22.186667-46.08 13.653333l-25.6-13.653333c-97.28-22.186667-216.746667-17.066667-353.28 11.946666-3.413333 1.706667-8.533333 1.706667-11.946667 0-85.333333-11.946667-138.24 15.36-163.84 92.16l63.146667 29.013334c32.426667-34.133333 68.266667-52.906667 102.4-56.32 35.84-3.413333 71.68 8.533333 105.813333 37.546666 11.946667 10.24 15.36 27.306667 8.533334 40.96l-121.173334 261.12c-3.413333 8.533333-11.946667 15.36-22.186666 18.773334-10.24 3.413333-20.48 1.706667-27.306667-3.413334l-25.6-17.066666c-22.186667-5.12-35.84 0-39.253333 5.12-1.706667 3.413333-3.413333 10.24-1.706667 18.773333z m928.426667-18.773333z" p-id="1112" fill="#1296db"></path><path d="M605.866667 889.173333c-88.746667 0-179.2-20.48-269.653334-61.44-3.413333-1.706667-6.826667-3.413333-10.24-6.826666l-10.24-10.24c-3.413333-3.413333-6.826667-8.533333-8.533333-11.946667v-1.706667c-3.413333-8.533333-3.413333-17.066667 0-25.6 51.2-122.88 146.773333-186.026667 283.306667-186.026666 138.24 0 230.4 73.386667 267.946666 213.333333 5.12 17.066667-3.413333 34.133333-18.773333 40.96-76.8 32.426667-155.306667 49.493333-233.813333 49.493333z m-223.573334-116.053333c139.946667 58.026667 271.36 63.146667 402.773334 15.36-32.426667-90.453333-93.866667-133.12-192.853334-133.12-100.693333 0-168.96 37.546667-209.92 117.76z" p-id="1113" fill="#1296db"></path></svg>