<?xml version="1.0" standalone="no"?><!DOCTYPE svg PUBLIC "-//W3C//DTD SVG 1.1//EN" "http://www.w3.org/Graphics/SVG/1.1/DTD/svg11.dtd"><svg t="1638936286560" class="icon" viewBox="0 0 1024 1024" version="1.1" xmlns="http://www.w3.org/2000/svg" p-id="1331" xmlns:xlink="http://www.w3.org/1999/xlink" width="400" height="400"><defs><style type="text/css"></style></defs><path d="M834.8 928.2h-298c-13.7 0-24.8-11.1-24.8-24.8s11.1-24.8 24.8-24.8h298c22.8 0 41.4-18.6 41.4-41.4V191.4c0-22.8-18.6-41.4-41.4-41.4H454c-13.7 0-24.8-11.1-24.8-24.8s11.1-24.8 24.8-24.8h380.8c50.2 0 91.1 40.9 91.1 91.1v645.7c-0.1 50.2-40.9 91-91.1 91zM271.9 381.8c-68.5 0-124.2-55.7-124.2-124.2s55.7-124.2 124.2-124.2S396 189.2 396 257.7s-55.7 124.1-124.1 124.1z m0-198.6c-41.1 0-74.5 33.4-74.5 74.5s33.4 74.5 74.5 74.5 74.5-33.4 74.5-74.5-33.5-74.5-74.5-74.5z" p-id="1332" fill="#1296db"></path><path d="M371.2 928.2H139.4c-22.8 0-41.4-18.6-41.4-41.4V522.6c0-68.5 55.7-124.2 124.2-124.2h71.2c22.3 0 44.5 5.3 64.5 15.2l156.3 78.2 77.6-88.7c22.9-26.2 62.7-30.4 90.5-9.5 14.5 10.9 24 27.4 26.1 45.4 2.1 18-3.3 36.3-14.9 50.2L563.8 644.8c-11.8 14.1-31.8 18.8-48.6 11.3l-102.7-45.6v276.4c0.1 22.7-18.5 41.3-41.3 41.3z m-223.5-49.7h215.2V597.7c0-14.1 7-27 18.8-34.7 11.8-7.7 26.5-8.8 39.4-3.1l108.6 48.2 125.5-150.6c3-3.6 4.3-8.1 3.8-12.7s-2.9-8.7-6.6-11.5c-7.2-5.4-17.4-4.3-23.3 2.4l-81.8 93.5c-12.4 14.2-32.8 18.2-49.7 9.8l-162-81c-13-6.5-27.7-10-42.2-10h-71.2c-41.1 0-74.5 33.4-74.5 74.5v356z" p-id="1333" fill="#1296db"></path><path d="M669.2 431.5c-5.6 0-11.2-1.9-15.9-5.8-10.5-8.8-12-24.4-3.2-35l82.8-99.3c8.8-10.5 24.4-11.9 35-3.2 10.5 8.8 12 24.4 3.2 35l-82.8 99.3c-4.9 6-12 9-19.1 9z" p-id="1334" fill="#1296db"></path></svg>