<?xml version="1.0" standalone="no"?><!DOCTYPE svg PUBLIC "-//W3C//DTD SVG 1.1//EN" "http://www.w3.org/Graphics/SVG/1.1/DTD/svg11.dtd"><svg t="1638936045040" class="icon" viewBox="0 0 1024 1024" version="1.1" xmlns="http://www.w3.org/2000/svg" p-id="776" xmlns:xlink="http://www.w3.org/1999/xlink" width="400" height="400"><defs><style type="text/css"></style></defs><path d="M318.5413165511111 619.4388184177776l-7.187193173333332 127.85822492444444c-18.787065173333332-18.638035626666664-42.213845902222225-29.719795484444443-67.98202424888889-29.719795484444443-63.34230755555556 0-112.92148394666667 65.89677112888889-112.92148394666667 150.04852451555556 0 84.1447674311111 49.57917639111111 150.0403746133333 112.92148394666667 150.0403746133333 19.631179093333333 0 37.91410403555555-6.350065208888889 53.82768867555556-17.594826524444443 35.42484081777778-25.01604352 59.071673457777784-74.37516799999999 59.071673457777784-132.44554808888887l0-159.8460677688889c0-11.252911217777779 1.72315648-22.12975616 4.39172096-32.60491889777777C351.6957821155555 653.0857813333333 337.14442240000005 633.8970350933334 318.5413165511111 619.4388184177776M302.4367866311111 906.8741597866666c-9.932600888888889 36.14088305777778-32.98447928888889 62.16520590222222-59.06352355555555 62.16520590222222-34.85666531555555 0-64.28655160888889-46.44372935111111-64.28655160888889-101.41359217777776 0-54.99198350222222 29.428721208888888-101.41359217777776 64.28655160888889-101.41359217777776 29.925875484444443 0 55.80000483555556 34.310610488888884 62.53312341333333 78.85188209777776 1.0990944711111112 7.2791722666666665 1.731306382222222 14.827296995555553 1.731306382222222 22.56171008C307.6365289244444 881.4599270399999 305.7701637688889 894.7561767822222 302.4367866311111 906.8741597866666M660.7253037511111 965.9737770666666c-25.053301191111114-4.845795555555556-45.67762375111111-19.48214954666667-46.287713848888885-19.950196053333332-0.9570508799999998-0.6892623644444444-2.001422791111111-1.22134528-3.0015522133333334-1.7674001066666667 9.805693155555556-22.313714346666664 15.501424640000002-48.42186638222222 15.501424640000002-76.63040739555555 0-84.15175338666666-49.57801244444444-150.04852451555556-112.93429191111112-150.04852451555556-25.768178346666666 0-49.18098716444444 11.060803128888889-68.01113088 29.719795484444443l-40.02846378666666-713.3798786844444c0-15.2289792-12.338034915555554-27.567014115555555-27.563521137777773-27.567014115555555-15.225486222222221 0-27.584477866666667 12.338034915555554-27.584477866666667 27.567014115555555l-30.88409031111111 550.8093610666667c47.62083214222222 20.602200746666668 81.16417194666666 68.08215324444444 81.16417194666666 123.03804416000001l0 159.83209585777777c0 58.078529991111104 23.646832640000003 107.44347648 59.07865941333333 132.46068394666665 15.913584639999998 11.23777536 34.19068871111111 17.580855751111113 53.81488184888889 17.580855751111113 27.250326186666666 0 51.89030229333333-12.251876693333333 71.22458510222222-32.84942051555555 0.16998741333333334 0.15717944888888888 0.3050450488888889 0.32600291555555555 0.4389387377777778 0.45523968 1.1992234666666668 0.8802065066666667 29.47180088888889 21.41837198222222 65.82574990222223 28.42160696888889 1.5531690666666664 0.2980590933333333 3.1226390755555555 0.45407459555555557 4.633894684444444 0.45407459555555557 11.435705457777777 0 21.646573795555554-8.087193599999999 23.838940728888886-19.695215502222222C682.5558357333334 981.2982283377778 673.9284093155554 968.5294045866666 660.7253037511111 965.9737770666666M379.01130865777776 570.5093188266667c-12.671022648888886 0-22.958734222222223-10.26209678222222-22.958734222222223-22.958734222222223 0-12.688487537777778 10.287711573333333-22.970377102222226 22.958734222222223-22.970377102222226 12.691980515555555 0 22.97270613333333 10.252781795555556 22.97270613333333 22.970377102222226C402.00497152 560.2472231822221 391.7032891733333 570.5093188266667 379.01130865777776 570.5093188266667M514.0043343644445 969.0393656888889c-26.066237440000002 0-49.095994026666666-26.024322844444445-59.050716728888894-62.16520590222222-3.355497813333333-12.117983004444444-5.214877013333334-25.414232746666666-5.214877013333334-39.24838627555555 0-7.747218773333333 0.6450198755555555-15.282536675555555 1.745278293333333-22.56171008 6.704010808888889-44.55640746666666 32.586290062222226-78.85188209777776 62.51915150222222-78.85188209777776 34.849679359999996 0 64.27956565333334 46.42044359111111 64.27956565333334 101.41359217777776C578.2839000177778 922.5956363377779 548.85284864 969.0393656888889 514.0043343644445 969.0393656888889M824.8210477511111 6.333851875555581l-6.456016213333333 0-6.456016213333333 0-193.24969301333334 0L618.6593234488889 37.01884814222217 778.7335930311111 37.01884814222217c-0.06403640888888888 0.904657351111111-0.27710236444444447 1.8023287466666669-0.27710236444444447 2.7454077155555554l0 31.82367630222222L618.6383655822223 71.58793216000004l0 30.684996266666666 159.81812508444443 0 0 34.565591039999994L618.6383655822223 136.8385194666667l0 30.667531377777777 159.81812508444443 0 0 34.569084017777776L618.6383655822223 202.07513600000004l0 30.664038399999995 159.81812508444443 0 0 34.569084017777776L618.6383655822223 267.3082584177778l0 30.684996266666666 159.81812508444443 0 0 34.569084017777776L618.6383655822223 332.56233983999994l0 30.688489244444444 159.81812508444443 0 0 34.54463431111111L618.6383655822223 397.7954622577778l0 30.702460017777778 159.81812508444443 0 0 34.55511324444444L618.6383655822223 463.05303552l0 30.684996266666666 159.81812508444443 0 0 490.4825764977778c0 18.383055075555554 15.06947072 33.43156792888889 33.43738993777778 33.43156792888889l12.907375502222221 0c18.404011804444444 0 33.43040398222222-15.06947072 33.43040398222222-33.43156792888889L858.2316589511111 39.76425585777781C858.2502877866667 21.37770780444447 843.2041028266666 6.333851875555581 824.8210477511111 6.333851875555581" p-id="777" fill="#1296db"></path></svg>